<svg xmlns="http://www.w3.org/2000/svg" xmlns:xlink="http://www.w3.org/1999/xlink" version="1.1" x="0px" y="0px" viewBox="0 0 100 125" enable-background="new 0 0 100 100" xml:space="preserve"><path fill="#000000" d="M69.798,30.202c-10.934-10.934-28.662-10.934-39.597,0s-10.934,28.662,0,39.597  c10.934,10.934,28.662,10.934,39.597,0C80.733,58.864,80.733,41.136,69.798,30.202z M60,56.383c0,1.104-0.896,2-2,2s-2-0.896-2-2  v-9.555L42.121,60.707c-0.39,0.391-0.902,0.586-1.414,0.586s-1.023-0.195-1.414-0.586c-0.781-0.781-0.781-2.047,0-2.828L53.172,44  h-9.555c-1.104,0-2-0.896-2-2s0.896-2,2-2H60V56.383z"/><text x="0" y="115" fill="#000000" font-size="5px" font-weight="bold" font-family="'Helvetica Neue', Helvetica, Arial-Unicode, Arial, Sans-serif">Created by Sophie Haskind</text><text x="0" y="120" fill="#000000" font-size="5px" font-weight="bold" font-family="'Helvetica Neue', Helvetica, Arial-Unicode, Arial, Sans-serif">from the Noun Project</text></svg>