<svg xmlns="http://www.w3.org/2000/svg" viewBox="0 0 64 80" x="0px" y="0px"><title>Arrow--right--up</title><path d="M48.94,41.931c.049-.124,4.243-24.042,4.243-24.042s.1-.12.1-.125c.389-2.151.53-4.887-.811-6.239-1.279-1.268-3.838-1.069-5.878-.779-.107,0-24.516,4.312-24.528,4.314a5.761,5.761,0,0,0-4.455,4.03A6.147,6.147,0,0,0,19.241,25l4.243,4.2L10.756,41.931a6,6,0,0,0,0,8.485l2.828,2.828a6,6,0,0,0,8.485,0L36.248,39.139a2.044,2.044,0,0,0-.037-2.865,2,2,0,0,0-2.828,0L19.241,50.416a2,2,0,0,1-2.828,0l-2.828-2.828a2,2,0,0,1,0-2.828L27.726,30.617a1.975,1.975,0,0,0,.02-2.808l-.02-.02.022.022-5.83-5.83a1.678,1.678,0,0,1-.5-1.718,2.168,2.168,0,0,1,1.623-1.4L47.1,14.633a1.942,1.942,0,0,1,1.842.428,2.061,2.061,0,0,1,.506,1.92L45.2,41.016a2.168,2.168,0,0,1-1.4,1.623,1.678,1.678,0,0,1-1.718-.5l-.158-.158a2,2,0,1,0-2.828,2.828l.158.158a5.732,5.732,0,0,0,5.718,1.475A6.324,6.324,0,0,0,48.94,41.931Z"/><text x="0" y="79" fill="#000000" font-size="5px" font-weight="bold" font-family="'Helvetica Neue', Helvetica, Arial-Unicode, Arial, Sans-serif">Created by GraphiteSword</text><text x="0" y="84" fill="#000000" font-size="5px" font-weight="bold" font-family="'Helvetica Neue', Helvetica, Arial-Unicode, Arial, Sans-serif">from the Noun Project</text></svg>